# xmcd CD database file
#
# Track frame offsets:
#	150
#	15150
#	34404
#	54671
#	75789
#	95610
#	120010
#	138980
#	146200
#	168252
#	175162
#
# Disc length: 2682 seconds
#
# Revision: 1
# Processed by: cddbd v1.5.1PL2 Copyright (c) Steve Scherf et al.
# Submitted via: CDex 1.51
#
DISCID=7f0a780b
DTITLE=一青窈 - ＆
DYEAR=2005
DGENRE=JPop
TTITLE0=Banana millefeuille
TTITLE1=ホチKiss
TTITLE2=うれしいこと。
TTITLE3=かざぐるま
TTITLE4=影踏み
TTITLE5=指切り
TTITLE6=アンモナイト
TTITLE7=Oh la la
TTITLE8=ピンクフラミンゴ
TTITLE9=＆
TTITLE10=さよならありがと
EXTD=YEAR: 2005
EXTT0=
EXTT1=
EXTT2=
EXTT3=
EXTT4=
EXTT5=
EXTT6=
EXTT7=
EXTT8=
EXTT9=
EXTT10=
PLAYORDER=
